<svg xmlns="http://www.w3.org/2000/svg" xmlns:xlink="http://www.w3.org/1999/xlink" width="287" height="105"><defs><path id="a" d="M0 .112h116.946v104.836H0z"/><path id="c" d="M.25.125h.125V.25H.25z"/><path id="d" d="M.105.088h26.809V41H.105z"/><path id="f" d="M.063.145H24.85V41H.063z"/><path id="h" d="M.136.075h21.778V41H.136z"/></defs><g fill="none" fill-rule="evenodd"><mask id="b" fill="#fff"><use xlink:href="#a"/></mask><path fill="#292B2B" d="M108.486 32.088h-2.85c-5.038-9.033-12.462-16.394-21.59-21.303l-.21-.113V8.558c0-4.657-3.794-8.446-8.458-8.446H39.832c-4.664 0-8.458 3.789-8.458 8.446v3.122A53.83 53.83 0 0011.31 32.088H8.458C3.794 32.088 0 35.877 0 40.534v35.49c0 4.657 3.794 8.446 8.458 8.446H11.3a54.157 54.157 0 006.377 9.082v4.369c0 3.875 3.158 7.027 7.039 7.027h66.592c3.881 0 7.04-3.152 7.04-7.027v-3.304a54.167 54.167 0 007.295-10.147h2.843c4.665 0 8.46-3.789 8.46-8.446v-35.49c0-4.657-3.795-8.446-8.46-8.446" mask="url(#b)"/><path fill="#333" d="M59.008 76l-.016-6h.016z"/><path fill="#15D1EA" d="M66 58a7 7 0 11-14 0 7 7 0 0114 0"/><path fill="#15D1EA" d="M86.028 66.05C78.862 69.004 69.264 70.632 59 70.632s-19.862-1.628-27.028-4.584c-6.038-2.49-9.643-5.687-9.643-8.55 0-2.861 3.605-6.057 9.643-8.548 7.166-2.956 16.764-4.584 27.028-4.584s19.862 1.628 27.028 4.584c6.038 2.49 9.643 5.687 9.643 8.549 0 2.862-3.605 6.058-9.643 8.55M59 41c-22.092 0-40 7.387-40 16.5S36.908 74 59 74c22.091 0 40-7.387 40-16.5S81.091 41 59 41"/><path fill="#15D1EA" d="M79.344 38.371c-1.053 7.645-4.461 16.738-9.595 25.603-5.135 8.864-11.33 16.352-17.447 21.084-5.155 3.987-9.696 5.525-12.147 4.115-2.452-1.411-3.386-6.1-2.498-12.544 1.052-7.645 4.46-16.738 9.595-25.602 5.134-8.865 11.33-16.353 17.446-21.084 5.154-3.988 9.696-5.526 12.147-4.116 2.452 1.411 3.386 6.1 2.499 12.544M44.367 49.367c-11.051 19.08-13.683 38.188-5.877 42.68 7.805 4.492 23.091-7.334 34.143-26.414 11.051-19.08 13.683-38.189 5.877-42.68-7.805-4.492-23.091 7.334-34.143 26.414"/><path fill="#15D1EA" d="M40.155 25.827c2.452-1.41 6.992.128 12.147 4.116 6.116 4.731 12.312 12.219 17.446 21.084 5.135 8.864 8.543 17.956 9.595 25.602.888 6.443-.046 11.133-2.498 12.544-2.451 1.41-6.993-.128-12.147-4.116-6.116-4.731-12.312-12.22-17.447-21.084-5.134-8.864-8.541-17.957-9.595-25.602-.887-6.443.047-11.133 2.499-12.544m-1.665-2.874c-7.806 4.491-5.174 23.6 5.877 42.68C55.42 84.713 70.705 96.54 78.51 92.048c7.806-4.493 5.174-23.601-5.877-42.681C61.58 30.287 46.295 18.46 38.49 22.953M153.525 54.314c0-.628-.112-1.066-.336-1.314-.28-.304-.783-.457-1.511-.457h-4.031v9.429h4.03c.673 0 1.149-.134 1.428-.4.28-.286.42-.743.42-1.372v-5.886zm10.61 30.572c.13.248.12.495-.029.742-.15.248-.354.372-.615.372h-6.747a.665.665 0 01-.643-.4l-8.202-16.257h-.252l-.028 15.857c0 .496-.252.743-.756.743h-6.634c-.486 0-.728-.247-.728-.743V68.686c-.019-.095-.028-.133-.028-.115v-.657c-.728-1.047-1.754-1.78-3.08-2.2-.111-.038-.167-.114-.167-.228 0-.115.056-.19.168-.229 1.306-.419 2.332-1.152 3.08-2.2V45.8c0-.229.073-.419.223-.571a.718.718 0 01.532-.229h12.737c3.303 0 5.598.8 6.886 2.4 1.082 1.314 1.66 3.543 1.735 6.686.019.324.019 2.39 0 6.2v.971c0 1.981-.541 3.648-1.623 5-.97 1.22-2.268 2.086-3.891 2.6l8.062 16.029zm30.091 1.342c0 .515-.24.772-.72.772h-18.295c-.498 0-.747-.257-.747-.772V69.46c-.701-1.068-1.725-1.821-3.072-2.26-.11-.038-.166-.105-.166-.2 0-.134.055-.22.166-.258 1.328-.42 2.353-1.163 3.072-2.231V46.744c0-.496.25-.744.747-.744h17.548c.498 0 .747.248.747.744v5.922c0 .497-.249.744-.747.744h-10.268v9.785h9.908c.48 0 .72.248.72.744v5.923c0 .496-.24.744-.72.744h-9.908v8.955h11.015c.48 0 .72.258.72.773v5.894z"/><g transform="translate(200.226 45)"><mask id="e" fill="#fff"><use xlink:href="#d"/></mask><path fill="#15D1EA" d="M15.499 24.863l-1.888-11.66-1.859 11.66h3.747zm11.24 3.45c.117.038.175.114.175.228s-.058.19-.174.228c-.853.267-1.695.76-2.527 1.483l1.83 9.864a.616.616 0 01-.146.599.749.749 0 01-.61.285h-6.68c-.446 0-.697-.218-.755-.656l-1.133-8.068h-6.216L9.37 40.344c-.058.438-.31.656-.755.656h-6.68a.718.718 0 01-.581-.285.676.676 0 01-.175-.599l1.83-9.722c-.813-.798-1.723-1.35-2.73-1.653-.116-.019-.174-.086-.174-.2 0-.133.058-.209.174-.228 1.743-.532 2.914-1.435 3.515-2.708 0-.038.019-.067.058-.086l.087-.028L8.586.715c.077-.418.33-.627.755-.627h8.569c.425 0 .677.21.755.627l4.705 25.146c.697 1.16 1.82 1.977 3.37 2.452z" mask="url(#e)"/></g><g transform="translate(232.226 45)"><mask id="g" fill="#fff"><use xlink:href="#f"/></mask><path fill="#15D1EA" d="M16.712 11.236c0-1.217-.22-2.167-.661-2.851-.422-.685-1.026-1.027-1.812-1.027-.997 0-1.687.219-2.07.656-.48.494-.72 1.445-.72 2.85v8.326c.576 1.026 1.64 1.777 3.193 2.252.115.038.172.114.172.228s-.057.19-.172.228c-1.61.476-2.674 1.188-3.192 2.138v6.244c0 1.407.24 2.367.719 2.88.383.418 1.073.627 2.07.627.863 0 1.476-.19 1.84-.57.422-.475.633-1.33.633-2.566v-3.535c0-.475.25-.713.748-.713h6.642c.498 0 .748.238.748.713v3.335c0 3.193-.968 5.75-2.904 7.67C20.028 40.04 17.46 41 14.239 41c-3.355 0-6.01-.94-7.965-2.823-1.955-1.9-2.933-4.476-2.933-7.726v-6.386C2.612 23.02 1.577 22.288.236 21.87c-.115-.038-.173-.104-.173-.2 0-.132.058-.209.173-.228 1.341-.418 2.376-1.15 3.105-2.195v-8.553c0-3.25.978-5.816 2.933-7.698 1.955-1.9 4.61-2.85 7.965-2.85 3.22 0 5.79 1.025 7.707 3.078 1.936 2.034 2.904 4.761 2.904 8.183v1.71c0 .495-.25.742-.748.742H17.46c-.499 0-.748-.247-.748-.742v-1.881z" mask="url(#g)"/></g><g transform="translate(264.226 46)"><mask id="i" fill="#fff"><use xlink:href="#h"/></mask><path fill="#15D1EA" d="M21.156.075c.505 0 .758.258.758.773v5.867c0 .515-.253.772-.758.772h-5.918v10.704c.777 1.011 1.836 1.717 3.178 2.118.116.038.175.114.175.229 0 .114-.059.19-.175.229-1.322.4-2.381 1.115-3.178 2.146v17.343c0 .496-.253.744-.758.744H7.57c-.506 0-.758-.248-.758-.744V23.113c-.72-1.125-1.827-1.907-3.324-2.346-.097-.039-.145-.115-.145-.23 0-.133.048-.21.145-.228 1.477-.44 2.585-1.23 3.324-2.376V7.487H.922c-.524 0-.786-.257-.786-.772V.848c0-.515.262-.773.787-.773h20.233z" mask="url(#i)"/></g><path fill="#4F5354" d="M161.226 39h4V25h-4zm15.121 0l-2.873-10.083h-.087c.135 1.717.202 3.051.202 4.002V39h-3.363V25h5.054l2.931 9.94h.077l2.874-9.94h5.064v14h-3.488v-6.138c0-.32.004-.674.014-1.063.01-.39.053-1.344.13-2.863h-.087L179.96 39h-3.613zm22.879 0h-8V25h8v3.036h-4.36v2.202h4.037v3.036h-4.037v2.643h4.36zm7.783-7.938h.709c1.321 0 1.982-.585 1.982-1.753 0-.964-.648-1.446-1.944-1.446h-.747v3.199zm0 2.844V39h-3.783V25h4.587c3.805 0 5.708 1.379 5.708 4.137 0 1.621-.792 2.876-2.375 3.763l4.08 6.1h-4.29l-2.97-5.094h-.957zm21.217.772c0 .845-.225 1.595-.674 2.25-.45.655-1.097 1.164-1.943 1.527-.847.363-1.84.545-2.979.545-.95 0-1.748-.064-2.392-.19a9.203 9.203 0 01-2.012-.667v-3.279c.735.36 1.5.642 2.295.843.794.202 1.523.303 2.187.303.573 0 .993-.094 1.26-.284.267-.19.4-.433.4-.731a.785.785 0 00-.16-.49c-.108-.139-.28-.28-.518-.423-.238-.143-.871-.435-1.9-.876-.93-.403-1.629-.794-2.094-1.173a3.638 3.638 0 01-1.036-1.305c-.224-.49-.336-1.07-.336-1.741 0-1.254.478-2.233 1.435-2.934.957-.702 2.272-1.053 3.945-1.053 1.478 0 2.985.326 4.522.978l-1.182 2.841c-1.334-.584-2.487-.875-3.457-.875-.501 0-.866.083-1.094.25-.228.169-.341.377-.341.625 0 .267.144.506.434.717.29.211 1.076.596 2.359 1.155 1.23.528 2.085 1.095 2.563 1.7.479.606.718 1.368.718 2.287m10.483-1.288l-.593-2.25c-.139-.5-.306-1.148-.504-1.942s-.328-1.363-.39-1.707c-.057.319-.169.844-.335 1.576-.167.731-.535 2.173-1.106 4.324h2.928zm.235-9.182c-.283 0-.567-.047-.852-.14a13.45 13.45 0 01-.843-.31 20.096 20.096 0 00-.805-.31 2.172 2.172 0 00-.739-.14c-.339 0-.564.306-.678.919h-1.694c.069-1.095.295-1.903.678-2.425.382-.522.947-.783 1.694-.783.239 0 .493.047.763.14.27.094.543.198.82.31.275.113.548.216.818.31.27.093.524.14.763.14a.5.5 0 00.433-.234c.106-.156.188-.385.245-.685h1.713c-.07 1.044-.301 1.84-.697 2.387-.395.547-.935.82-1.62.82zM240.159 39l-.678-2.57h-4.472l-.697 2.57h-4.086l4.49-13.77h4.962L244.226 39h-4.067zm11.162-7.005c0 2.63.968 3.945 2.905 3.945.984 0 1.715-.32 2.19-.958.476-.64.714-1.635.714-2.987 0-1.358-.24-2.36-.723-3.009-.483-.648-1.203-.972-2.162-.972-1.949 0-2.924 1.327-2.924 3.981m9.905 0c0 2.289-.594 4.028-1.782 5.219-1.188 1.19-2.928 1.786-5.218 1.786-2.258 0-3.99-.598-5.194-1.795-1.204-1.197-1.806-2.94-1.806-5.228 0-2.264.599-3.992 1.797-5.186C250.22 25.597 251.96 25 254.245 25c2.291 0 4.027.592 5.209 1.777 1.181 1.184 1.772 2.924 1.772 5.218"/></g></svg>