<svg width="110" height="55" xmlns="http://www.w3.org/2000/svg"><g fill="none" fill-rule="evenodd"><path fill="#292B2B" d="M0 0h110v55H0z"/><path d="M39.764 11h3.021c.152 0 .279.124.279.272v29.589a.278.278 0 01-.279.275h-3.02a.279.279 0 01-.28-.275V11.272c.025-.148.127-.272.28-.272zm20.78 24.644v.745c0 .323-.047.77-.175 1.342-.102.546-.407 1.118-.889 1.663-.482.548-1.192 1.044-2.157 1.441-.964.4-2.285.599-3.984.599-1.699 0-3.019-.2-3.983-.599-.964-.397-1.674-.868-2.157-1.44-.482-.546-.788-1.117-.888-1.686-.101-.575-.176-.996-.176-1.319V19.67a.28.28 0 01.278-.276h3.02a.28.28 0 01.28.276v15.651c0 .522.075.894.152 1.192.077.299.23.596.458.845.227.272.583.496 1.065.67.456.175 1.091.275 1.877.275.814 0 1.472-.1 1.955-.275.482-.174.837-.398 1.091-.646.251-.248.43-.52.506-.82.076-.298.18-.545.18-1.268V19.646c0-.148.125-.272.277-.272h3.019c.15 0 .278.124.278.275v15.997h-.024l-.002-.002zm10.253-16.67h2.031a.27.27 0 01.254.346l-.686 2.585c-.024.125-.152.2-.254.2h-1.42c-.762 0-1.37.099-1.852.299-.459.197-.838.42-1.093.693-.254.276-.406.547-.482.82a3.337 3.337 0 00-.102.82v15.976a.278.278 0 01-.28.272h-3.044a.278.278 0 01-.278-.272V24.016c0-.297.05-.744.177-1.316.101-.57.406-1.117.888-1.689.483-.547 1.193-1.043 2.157-1.44.966-.4 2.285-.598 3.984-.598zm10.886-.1c2.488 0 4.315.473 5.482 1.442 1.167.945 1.75 2.16 1.75 3.6V36.19c0 .497-.1 1.044-.279 1.64-.177.598-.532 1.143-1.09 1.638-.533.499-1.269.921-2.207 1.245-.938.322-2.158.495-3.654.495-1.495 0-2.715-.173-3.653-.495-.939-.324-1.675-.746-2.207-1.245a3.973 3.973 0 01-1.089-1.639c-.18-.595-.281-1.142-.281-1.639V34.23c0-1.045.28-2.014.837-2.86.559-.867 1.346-1.463 2.36-1.837.508-.174 1.092-.347 1.752-.57.657-.225 1.268-.45 1.878-.646.61-.2 1.141-.4 1.598-.575.276-.11.554-.209.837-.296l.458-.224c.177-.1.355-.25.532-.448.181-.202.335-.427.457-.67.135-.27.205-.567.203-.868v-.796a2.012 2.012 0 00-.18-.845c-.1-.299-.302-.572-.582-.82-.278-.249-.658-.447-1.116-.598-.457-.147-1.065-.223-1.751-.223-1.422 0-2.359.276-2.868.845a3.075 3.075 0 00-.735 1.814c0 .15-.126.249-.278.249h-3.078a.28.28 0 01-.278-.273v-.721c0-.694.127-1.34.408-1.962.278-.62.709-1.143 1.291-1.589.586-.447 1.346-.82 2.26-1.068.863-.251 1.953-.375 3.223-.375v.002zm3.653 11.006a.865.865 0 01-.43.622c-.228.149-.431.223-.635.297-.43.15-.889.3-1.37.472-.51.174-.966.348-1.371.473-.51.173-.99.322-1.448.497-.346.147-.669.339-.964.571a4.059 4.059 0 00-.709.844c-.204.348-.33.795-.33 1.317 0 1.044.25 1.838.759 2.335.507.522 1.448.77 2.842.77 1.424 0 2.387-.273 2.895-.82.506-.546.76-1.315.76-2.308v-5.07zM29.23 18.875c2.489 0 4.316.472 5.481 1.441 1.168.945 1.752 2.16 1.752 3.6V36.19c0 .497-.101 1.044-.278 1.64-.18.598-.533 1.143-1.092 1.638-.532.499-1.268.921-2.207 1.245-.94.322-2.157.495-3.655.495-1.495 0-2.715-.173-3.653-.495-.938-.324-1.675-.746-2.207-1.245a3.98 3.98 0 01-1.092-1.639c-.178-.594-.28-1.141-.28-1.637V34.23c0-1.044.279-2.014.837-2.86.56-.868 1.345-1.463 2.36-1.837.507-.173 1.091-.347 1.75-.57.66-.226 1.269-.449 1.879-.646.61-.2 1.142-.4 1.598-.575.275-.11.555-.209.837-.296l.457-.223c.18-.1.356-.25.533-.448.178-.198.33-.422.458-.67.135-.27.205-.567.203-.868v-.796c.002-.292-.06-.58-.18-.846-.1-.299-.303-.572-.582-.82-.278-.248-.66-.446-1.116-.597-.457-.148-1.065-.223-1.752-.223-1.42 0-2.36.275-2.867.844a3.068 3.068 0 00-.734 1.814c0 .15-.127.249-.28.249l-3.095.05a.279.279 0 01-.28-.275v-.718a4.7 4.7 0 01.407-1.964c.28-.622.712-1.143 1.294-1.591.584-.446 1.346-.819 2.259-1.067.888-.3 1.98-.422 3.247-.422h-.002zm3.655 11.005a.868.868 0 01-.43.622c-.23.149-.431.223-.635.297-.432.15-.889.3-1.371.472-.508.174-.964.348-1.37.473-.508.173-.99.322-1.448.497-.345.147-.67.339-.963.571a4.123 4.123 0 00-.711.844 2.603 2.603 0 00-.332 1.317c0 1.044.255 1.838.762 2.335.508.522 1.448.77 2.843.77 1.42 0 2.384-.273 2.894-.82.506-.546.76-1.315.76-2.308v-5.07z" fill="#FFF"/></g></svg>